<svg width="49" height="48" viewBox="0 0 49 48" fill="none" xmlns="http://www.w3.org/2000/svg">
<mask id="mask0_2262_8319" style="mask-type:alpha" maskUnits="userSpaceOnUse" x="0" y="0" width="49" height="48">
<path d="M1.28029 12.3158C2.15342 6.21531 6.71531 1.65342 12.8158 0.780288C15.9298 0.334589 19.8246 0 24.5 0C29.1754 0 33.0702 0.334589 36.1842 0.780288C42.2847 1.65342 46.8466 6.21531 47.7197 12.3158C48.1654 15.4298 48.5 19.3246 48.5 24C48.5 28.6754 48.1654 32.5702 47.7197 35.6842C46.8466 41.7847 42.2847 46.3466 36.1842 47.2197C33.0702 47.6654 29.1754 48 24.5 48C19.8246 48 15.9298 47.6654 12.8158 47.2197C6.71531 46.3466 2.15342 41.7847 1.28029 35.6842C0.834589 32.5702 0.5 28.6754 0.5 24C0.5 19.3246 0.834589 15.4298 1.28029 12.3158Z" fill="#3778FB"/>
</mask>
<g mask="url(#mask0_2262_8319)">
<rect width="48" height="48" transform="translate(0.5)" fill="#F2F3F5"/>
<path d="M17.0323 19.1092C17.0323 17.0741 17.7742 15 20 15C22.2258 15 22.9678 17.0361 22.9678 19.1092C22.9678 21.1823 21.6527 22.8074 20 22.8074C18.3474 22.8074 17.0323 21.1443 17.0323 19.1092Z" fill="#030306" fill-opacity="0.88"/>
<path d="M27.0323 21.6092C27.0323 19.5741 27.7742 17.5 30 17.5C32.2258 17.5 32.9678 19.5361 32.9678 21.6092C32.9678 23.6823 31.6527 25.3074 30 25.3074C28.3474 25.3074 27.0323 23.6443 27.0323 21.6092Z" fill="#030306" fill-opacity="0.88"/>
<path d="M13.5 29.4616V32.3077H26.5V29.4616C26.4574 28.6584 26.1735 28.1789 25.7388 27.5964C24.824 26.3709 22.8949 24.8462 20 24.8462C16.8277 24.8462 14.9627 26.4672 14.1441 27.6831C13.7852 28.2161 13.5372 28.76 13.5 29.4616Z" fill="#030306" fill-opacity="0.88"/>
<path d="M28.0431 27.5232C28.6158 27.3887 29.2667 27.3076 30 27.3076C32.4496 27.3076 34.0819 28.3293 34.8559 29.1505C35.2238 29.5408 35.464 29.8622 35.5 30.4004V32.3076H28.5V29.4086L28.4972 29.3556C28.458 28.6155 28.2814 28.0239 28.0431 27.5232Z" fill="#030306" fill-opacity="0.88"/>
</g>
</svg>
